<svg xmlns="http://www.w3.org/2000/svg" version="1.1" xmlns:xlink="http://www.w3.org/1999/xlink" xmlns:svgjs="http://svgjs.dev/svgjs" width="2000" height="2000" viewBox="0 0 2000 2000"><g transform="matrix(1,0,0,1,-0.9999999999998863,-0.9994023617508674)"><svg viewBox="0 0 280 280" data-background-color="#040404" preserveAspectRatio="xMidYMid meet" height="2000" width="2000" xmlns="http://www.w3.org/2000/svg" xmlns:xlink="http://www.w3.org/1999/xlink"><g id="tight-bounds" transform="matrix(1,0,0,1,0.13999999999998636,0.13991633064512143)"><svg viewBox="0 0 279.72 279.72" height="279.72" width="279.72"><g><svg viewBox="0 0 279.72 279.72" height="279.72" width="279.72"><g><svg viewBox="0 0 279.72 279.72" height="279.72" width="279.72"><g id="textblocktransform"><svg viewBox="0 0 279.72 279.72" height="279.72" width="279.72" id="textblock"><g><svg viewBox="0 0 279.72 279.72" height="279.72" width="279.72"><g transform="matrix(1,0,0,1,57.446704652707865,57.446704652707865)"><svg viewBox="0 0 164.8265906945843 164.8265906945843" height="164.8265906945843" width="164.8265906945843"><g><circle r="82" cx="82.41329534729215" cy="82.41329534729215" fill="#ee3e38" data-fill-palette-color="accent"></circle><svg xmlns="http://www.w3.org/2000/svg" xmlns:xlink="http://www.w3.org/1999/xlink" version="1.1" x="24.723988604187646" y="24.72398860418764" viewBox="-345.9993896484375 257.947998046875 99.75178527832031 98.05203247070312" enable-background="new -346 256 100 100" xml:space="preserve" width="115.378613486209" height="115.378613486209" class="icon-o-0" data-fill-palette-color="quaternary" id="o-0"><path d="M-246.455 327.152l-16.86-64.454c0 0-1.243-4.756-6.002-4.75l-72.96 0.08c0 0-4.759 0.004-3.515 4.761l15.835 60.538c7.148-15.684 15.203-33.301 15.795-34.599l0.423-0.924 21.84-0.021-1.048 2.253c-5.985 12.87-13.768 29.775-19.236 41.944l62.212-0.067C-249.97 331.912-245.211 331.906-246.455 327.152z" fill="#ffffff" data-fill-palette-color="quaternary"></path><path d="M-296.864 290.954l-14.839 0.015c-9.094 19.892-25.758 56.396-26.425 58.074-1.594 4.007 0.346 6.235 1.171 6.957h56.176l-1.875-4.804h-35.137c-0.044 0.002-0.107 0.005-0.184 0.005-1.988 0-3.998-1.204-4.006-3.894-0.002-0.629-0.004-1.579 13.149-30.369C-303.924 306.194-298.966 295.487-296.864 290.954z" fill="#ffffff" data-fill-palette-color="quaternary"></path></svg></g></svg></g><g><path d="M3.247 101.734l1.333-3.792 26.189 9.208-1.333 3.792zM15.099 101.987l4.312-12.266 3.146 1.107-4.312 12.265zM8.636 86.406l1.349-3.839 26.189 9.208-1.349 3.839z" fill="#ee3e38" data-fill-palette-color="primary"></path><path d="M27.225 55.171v0c0.821-1.055 1.659-2.134 2.516-3.235 0.857-1.102 1.718-2.176 2.582-3.223 0.86-1.041 1.701-2.026 2.523-2.954v0l2.347 2.026-6.793 8.736c-0.496 0.637-0.7 1.229-0.613 1.774 0.091 0.54 0.487 1.083 1.187 1.627v0l12.7 9.877c0.7 0.544 1.328 0.798 1.885 0.761 0.561-0.042 1.089-0.381 1.584-1.018v0l6.793-8.736 2.511 1.751c-0.697 1.025-1.449 2.079-2.257 3.161-0.812 1.087-1.641 2.186-2.488 3.296-0.847 1.11-1.68 2.193-2.5 3.248v0c-1.024 1.316-2.191 2.085-3.503 2.305-1.312 0.221-2.568-0.12-3.77-1.021v0l-14.165-11.016c-1.19-0.959-1.832-2.095-1.926-3.408-0.099-1.317 0.364-2.634 1.387-3.951zM35.926 67.96l-2.445-1.901 9.286-11.94 2.444 1.901z" fill="#ee3e38" data-fill-palette-color="primary"></path><path d="M68.751 18.801l3.241-2.189 14.659 21.706c0.585 0.866 0.466 1.577-0.356 2.132v0l-2.87 1.939c-0.378 0.256-0.731 0.366-1.058 0.331-0.336-0.037-0.694-0.17-1.073-0.401v0l-18.028-10.448c-0.503-0.307-1.079-0.652-1.729-1.035-0.648-0.392-1.206-0.786-1.673-1.182v0l-0.493 0.333c0.388 0.48 0.771 0.976 1.148 1.488 0.374 0.506 0.74 1.025 1.1 1.557v0l11.171 16.54-3.265 2.205-14.66-21.705c-0.585-0.866-0.456-1.585 0.389-2.155v0l2.763-1.867c0.378-0.256 0.739-0.371 1.083-0.347 0.342 0.033 0.7 0.162 1.076 0.387v0l17.498 10.231c0.562 0.299 1.183 0.658 1.864 1.076 0.683 0.409 1.354 0.81 2.012 1.205v0l0.534-0.361c-0.448-0.568-0.883-1.136-1.307-1.705-0.422-0.577-0.827-1.154-1.216-1.729v0z" fill="#ee3e38" data-fill-palette-color="primary"></path><path d="M107.23 3.547v0c1.974-0.506 3.704-0.701 5.189-0.582 1.485 0.118 2.776 0.596 3.872 1.435 1.104 0.844 2.073 2.105 2.907 3.783 0.835 1.685 1.586 3.825 2.251 6.421v0c0.667 2.602 1.04 4.839 1.117 6.712 0.079 1.879-0.164 3.451-0.727 4.715-0.556 1.27-1.456 2.313-2.701 3.132-1.247 0.812-2.857 1.471-4.832 1.976v0c-1.872 0.48-3.613 0.893-5.225 1.238-1.619 0.347-3.153 0.651-4.602 0.914v0l0.835-3.534c1.103-0.228 2.329-0.495 3.678-0.8 1.349-0.305 2.841-0.667 4.476-1.086v0c1.66-0.426 2.888-1.086 3.683-1.98 0.794-0.9 1.198-2.162 1.212-3.784 0.014-1.623-0.322-3.773-1.009-6.453v0c-0.685-2.673-1.425-4.717-2.219-6.132-0.793-1.415-1.756-2.333-2.888-2.753-1.131-0.414-2.526-0.407-4.186 0.018v0c-1.609 0.413-3.048 0.795-4.317 1.148-1.269 0.353-2.509 0.698-3.72 1.036v0l-2.442-2.57c1.397-0.467 2.887-0.942 4.471-1.423 1.579-0.473 3.305-0.95 5.177-1.431zM97.582 6.401l3.894-0.999 6.896 26.89-3.893 0.999z" fill="#ee3e38" data-fill-palette-color="primary"></path><path d="M154.041 0.414v0c2.19 0.169 3.944 0.539 5.26 1.112 1.31 0.572 2.23 1.466 2.76 2.681 0.524 1.208 0.706 2.855 0.545 4.94v0c-0.113 1.471-0.383 2.688-0.809 3.651-0.419 0.963-1.02 1.697-1.802 2.2-0.775 0.504-1.8 0.79-3.072 0.859v0l-0.015 0.198c0.447 0.141 0.886 0.39 1.316 0.748 0.431 0.352 0.826 0.82 1.186 1.405 0.354 0.578 0.594 1.287 0.722 2.126v0l1.932 8.909-4.245-0.327-1.75-8.815c-0.238-1.04-0.622-1.797-1.15-2.268-0.535-0.466-1.254-0.734-2.158-0.804v0c-1.689-0.13-3.133-0.248-4.332-0.353-1.206-0.106-2.214-0.204-3.024-0.293-0.816-0.096-1.477-0.164-1.985-0.202v0l0.365-3.198 9.154 0.705c1.308 0.074 2.349 0.002 3.123-0.217 0.767-0.226 1.347-0.686 1.738-1.379 0.392-0.7 0.639-1.706 0.74-3.019v0c0.101-1.306 0.01-2.329-0.271-3.067-0.282-0.732-0.785-1.268-1.509-1.61-0.731-0.335-1.749-0.553-3.055-0.653v0c-2.25-0.173-4.19-0.309-5.822-0.408-1.638-0.1-2.738-0.171-3.298-0.215v0l-0.32-3.09c1.024-0.027 1.99-0.036 2.899-0.026 0.914 0.017 1.913 0.061 2.996 0.131 1.09 0.071 2.383 0.164 3.881 0.279zM144.265 0.03l3.969 0.305-2.132 27.679-3.968-0.306z" fill="#ee3e38" data-fill-palette-color="primary"></path><path d="M187.665 7.946l3.801 1.308-9.031 26.25-3.801-1.308z" fill="#ee3e38" data-fill-palette-color="primary"></path><path d="M223.318 26.399v0c0.996 0.676 1.835 1.278 2.517 1.806 0.682 0.527 1.286 1.045 1.812 1.554 0.535 0.507 1.064 1.066 1.585 1.676v0l-2.023 2.273c-0.623-0.519-1.211-0.99-1.764-1.413-0.558-0.427-1.155-0.872-1.791-1.337-0.642-0.468-1.417-1.01-2.327-1.627v0c-1.418-0.963-2.725-1.446-3.921-1.451-1.2 0.001-2.413 0.533-3.639 1.596-1.226 1.063-2.606 2.725-4.141 4.987v0c-1.539 2.266-2.576 4.165-3.112 5.696-0.536 1.532-0.583 2.855-0.141 3.972 0.446 1.11 1.378 2.147 2.795 3.109v0c1.44 0.977 2.674 1.775 3.702 2.393 1.023 0.614 2.048 1.171 3.077 1.67v0l-1.366 2.719c-1.171-0.371-2.315-0.848-3.432-1.43-1.115-0.573-2.438-1.38-3.971-2.42v0c-2.217-1.505-3.739-3.098-4.565-4.779-0.821-1.677-0.942-3.583-0.365-5.718 0.572-2.139 1.854-4.675 3.847-7.61v0c1.988-2.929 3.871-5.054 5.648-6.374 1.771-1.325 3.587-1.915 5.449-1.771 1.867 0.148 3.909 0.974 6.126 2.479z" fill="#ee3e38" data-fill-palette-color="primary"></path><path d="M256.91 60.87l2.721 3.442-13.88 0.864c-0.444 0.047-0.854 0.056-1.232 0.026-0.379-0.021-0.786-0.066-1.221-0.136v0l-0.062 0.049c-0.032 0.472-0.081 0.937-0.149 1.396-0.064 0.464-0.165 0.885-0.304 1.265v0l-4.584 14.189-2.819-3.565 5.425-16.55zM247.528 49.005l2.469 3.122-6.688 5.288c-0.654 0.517-1.303 0.971-1.947 1.362-0.653 0.39-1.354 0.763-2.102 1.118v0c-0.488 0.588-1.003 1.169-1.546 1.742-0.542 0.563-1.087 1.062-1.638 1.497v0l-7.855 6.211-2.469-3.122zM239.929 58.341l3.294 4.166-2.429 1.92-3.294-4.165z" fill="#ee3e38" data-fill-palette-color="primary"></path><path d="M274.248 93.532v0c0.454 1.264 0.887 2.586 1.3 3.965 0.407 1.382 0.715 2.794 0.925 4.236v0l-2.773 0.75c-0.361-1.095-0.785-2.317-1.272-3.668-0.487-1.351-0.97-2.654-1.448-3.91v0c-0.335-0.878-0.646-1.62-0.934-2.225-0.288-0.606-0.622-1.066-1.004-1.38-0.376-0.317-0.849-0.473-1.421-0.467-0.574-0.001-1.3 0.166-2.178 0.501v0c-1.329 0.507-2.167 1.113-2.514 1.819-0.347 0.706-0.444 1.678-0.29 2.915v0l0.6 5.752c0.266 2.2-0.056 3.902-0.964 5.105-0.899 1.207-2.351 2.192-4.353 2.956v0c-1.508 0.575-2.791 0.87-3.849 0.884-1.057 0.014-1.972-0.24-2.743-0.76-0.774-0.526-1.475-1.314-2.102-2.364-0.635-1.054-1.249-2.356-1.841-3.908v0c-0.325-0.853-0.715-1.997-1.17-3.431-0.461-1.432-0.867-3.129-1.219-5.09v0l2.847-0.778c0.514 1.496 0.932 2.722 1.253 3.675 0.321 0.954 0.61 1.768 0.868 2.442 0.259 0.68 0.518 1.357 0.774 2.031v0c0.479 1.255 0.953 2.211 1.423 2.867 0.461 0.653 1.031 1.023 1.709 1.112 0.676 0.082 1.555-0.083 2.637-0.496v0c0.927-0.354 1.614-0.736 2.059-1.147 0.445-0.411 0.709-0.897 0.792-1.46 0.089-0.565 0.081-1.245-0.024-2.04v0l-0.577-5.941c-0.191-2.08 0.153-3.73 1.033-4.951 0.884-1.229 2.302-2.217 4.256-2.962v0c1.502-0.573 2.782-0.866 3.839-0.88 1.055-0.02 1.948 0.234 2.681 0.762 0.73 0.522 1.382 1.293 1.955 2.314 0.577 1.012 1.152 2.269 1.725 3.772z" fill="#ee3e38" data-fill-palette-color="primary"></path><path d="M35.783 182.948l-21.658 7.492c-1.057 0.366-1.814-0.114-2.273-1.44v0c-0.452-1.307-0.15-2.143 0.907-2.509v0l21.658-7.492-2.009-5.806c-0.275-0.794 0.143-1.408 1.254-1.841v0c1.107-0.383 1.805-0.155 2.095 0.683v0l5.38 15.551c0.292 0.844-0.123 1.436-1.245 1.775v0c-1.126 0.389-1.827 0.184-2.104-0.616v0z" fill="#ee3e38" data-fill-palette-color="primary"></path><path d="M28.202 221.511l-6.541-11.052c-0.441-0.746-0.546-1.364-0.314-1.856 0.227-0.488 0.57-0.868 1.032-1.141v0l20.354-12.045c0.461-0.273 0.957-0.39 1.489-0.35 0.525 0.043 1.008 0.437 1.449 1.183v0l6.218 10.506c0.441 0.746 0.17 1.437-0.815 2.074v0c-1.001 0.646-1.746 0.557-2.235-0.269v0l-5.231-8.841-17.903 10.595 5.555 9.387c0.441 0.746 0.172 1.421-0.809 2.024v0c-1.024 0.66-1.774 0.588-2.249-0.215zM39.726 212.454v0c-0.706 0.418-1.445 0.521-2.216 0.309-0.777-0.209-1.373-0.664-1.788-1.364v0c-0.408-0.689-0.511-1.416-0.31-2.181 0.192-0.767 0.641-1.36 1.347-1.777v0c0.706-0.418 1.444-0.528 2.215-0.331 0.767 0.192 1.354 0.632 1.762 1.322v0c0.414 0.7 0.526 1.442 0.335 2.223-0.191 0.782-0.639 1.382-1.345 1.799z" fill="#ee3e38" data-fill-palette-color="primary"></path><path d="M55.864 240.769l-1.678 1.592c-1.378 1.307-2.837 1.826-4.379 1.555v0c-0.741-0.136-1.423-0.356-2.047-0.657-0.624-0.293-1.146-0.66-1.565-1.101v0l-5.267-5.551c-0.414-0.437-0.754-0.977-1.018-1.621-0.264-0.634-0.445-1.325-0.542-2.071v0c-0.078-0.765 0.021-1.502 0.297-2.211 0.271-0.714 0.765-1.41 1.48-2.088v0l12.089-11.47c0.677-0.642 1.388-1.089 2.134-1.341 0.742-0.257 1.483-0.317 2.223-0.18v0l-0.02-0.022c0.707 0.168 1.38 0.401 2.017 0.699 0.638 0.298 1.164 0.665 1.579 1.102v0l5.267 5.551c0.419 0.442 0.76 0.989 1.024 1.641 0.264 0.653 0.461 1.337 0.592 2.052v0l-0.02-0.022c0.093 0.742-0.006 1.479-0.297 2.211-0.295 0.727-0.781 1.412-1.458 2.054v0l-1.757 1.667c-0.816 0.774-1.707 0.653-2.672-0.365v0c-0.947-0.998-1.013-1.885-0.197-2.659v0l1.526-1.449c0.427-0.405 0.698-0.904 0.812-1.495 0.114-0.591-0.128-1.202-0.724-1.83v0l-4.058-4.277c-0.597-0.629-1.193-0.902-1.79-0.819-0.597 0.083-1.108 0.327-1.536 0.732v0l-11.657 11.06c-0.442 0.419-0.719 0.924-0.833 1.515-0.114 0.591 0.128 1.202 0.725 1.831v0l4.057 4.277c0.597 0.629 1.193 0.902 1.79 0.819 0.597-0.083 1.116-0.333 1.557-0.753v0l1.476-1.4c0.797-0.756 1.669-0.635 2.617 0.364v0c0.966 1.018 1.05 1.904 0.253 2.66z" fill="#ee3e38" data-fill-palette-color="primary"></path><path d="M74.915 261.525l13.347-20.999c0.603-0.949 1.489-1.053 2.656-0.311v0c1.184 0.752 1.474 1.603 0.871 2.553v0l-13.348 20.999c-0.6 0.944-1.492 1.039-2.676 0.287v0c-1.167-0.742-1.451-1.585-0.85-2.529zM79.266 234.808l-13.348 20.999c-0.6 0.944-1.494 1.038-2.683 0.282v0c-1.161-0.738-1.442-1.579-0.843-2.523v0l13.348-20.999c0.603-0.949 1.486-1.055 2.647-0.317v0c1.189 0.756 1.482 1.609 0.879 2.558zM79.831 249.221v0c-0.44 0.692-1.047 1.122-1.82 1.289-0.776 0.173-1.511 0.039-2.203-0.4v0c-0.67-0.426-1.092-1.027-1.264-1.804-0.176-0.771-0.045-1.502 0.395-2.195v0c0.44-0.692 1.048-1.125 1.825-1.298 0.776-0.173 1.5-0.046 2.17 0.38v0c0.692 0.44 1.125 1.048 1.298 1.825 0.173 0.776 0.039 1.511-0.401 2.203z" fill="#ee3e38" data-fill-palette-color="primary"></path><path d="M108.017 268.404l5.929-18.037c0.351-1.069 1.184-1.387 2.498-0.955v0c1.307 0.43 1.786 1.179 1.434 2.247v0l-7.56 22.997c-0.256 0.779-0.855 1.213-1.796 1.301v0l0.038 0.012c-0.408 0.033-0.825 0.032-1.253-0.004-0.431-0.044-0.835-0.128-1.212-0.253v0c-0.289-0.095-0.578-0.221-0.868-0.379-0.296-0.16-0.562-0.345-0.8-0.555-0.235-0.217-0.435-0.467-0.599-0.751-0.169-0.292-0.267-0.617-0.296-0.975v0l-1.305-20.405-0.927-0.2-5.92 18.009c-0.349 1.062-1.193 1.373-2.532 0.933v0c-1.307-0.43-1.787-1.176-1.438-2.238v0l7.551-22.968c0.3-0.911 0.9-1.393 1.802-1.445v0c0.83-0.047 1.657 0.064 2.481 0.335v0c0.578 0.19 1.121 0.498 1.629 0.922 0.514 0.427 0.819 1.015 0.915 1.763v0l1.264 20.433z" fill="#ee3e38" data-fill-palette-color="primary"></path><path d="M131.514 251.354l7.635 0.521c0.607 0.041 1.229 0.213 1.865 0.515 0.636 0.302 1.244 0.672 1.824 1.11v0l-0.03-0.002c0.571 0.483 0.996 1.093 1.278 1.828 0.275 0.735 0.38 1.568 0.317 2.499v0l-1.135 16.625c-0.129 1.895-0.853 3.264-2.171 4.11v0c-0.638 0.401-1.288 0.701-1.952 0.901-0.657 0.207-1.29 0.29-1.897 0.249v0l-7.634-0.522c-0.601-0.041-1.216-0.209-1.846-0.504-0.624-0.288-1.224-0.674-1.801-1.157v0c-0.575-0.51-1.001-1.12-1.278-1.829-0.283-0.709-0.391-1.555-0.324-2.539v0l1.135-16.625c0.064-0.931 0.285-1.741 0.663-2.432 0.372-0.691 0.877-1.237 1.515-1.637v0l-0.03-0.002c0.634-0.355 1.287-0.638 1.958-0.852 0.671-0.213 1.307-0.299 1.908-0.257zM130.737 275.704l5.882 0.401c0.865 0.059 1.489-0.144 1.872-0.608 0.383-0.465 0.596-1.001 0.637-1.608v0l1.094-16.031c0.04-0.588-0.098-1.137-0.414-1.65-0.317-0.512-0.907-0.798-1.772-0.857v0l-5.882-0.402c-0.865-0.059-1.489 0.144-1.872 0.608-0.383 0.465-0.595 0.991-0.635 1.578v0l-1.095 16.032c-0.041 0.607 0.096 1.167 0.413 1.679 0.317 0.512 0.907 0.798 1.772 0.858z" fill="#ee3e38" data-fill-palette-color="primary"></path><path d="M173.01 246.628v0c0.732-0.152 1.571-0.146 2.517 0.016v0c0.864 0.159 1.389 0.686 1.574 1.58v0l4.901 23.676c0.227 1.095-0.334 1.782-1.682 2.061v0c-1.354 0.28-2.145-0.127-2.371-1.222v0l-3.658-17.67-1.011 0.108-0.457 4.747-1.276 14.596c-0.086 0.856-0.624 1.376-1.613 1.56v0c-0.439 0.064-0.843 0.026-1.21-0.115-0.359-0.135-0.638-0.388-0.836-0.759v0l-4.124-7.488c-0.833-1.476-1.671-2.982-2.516-4.516-0.845-1.535-1.771-3.235-2.779-5.101v0l-0.963 0.341 3.677 17.767c0.227 1.095-0.337 1.783-1.691 2.063v0c-1.348 0.279-2.135-0.129-2.362-1.224v0l-4.9-23.676c-0.181-0.875 0.091-1.566 0.817-2.075v0c0.778-0.519 1.558-0.846 2.341-0.981v0c0.343-0.071 0.709-0.099 1.097-0.085 0.388 0.014 0.759 0.076 1.113 0.185 0.359 0.101 0.689 0.259 0.99 0.474 0.306 0.207 0.566 0.467 0.78 0.781v0l9.2 17.272c0.108-1.435 0.216-2.987 0.323-4.658 0.107-1.671 0.222-3.367 0.346-5.088 0.117-1.72 0.235-3.42 0.353-5.101 0.117-1.686 0.228-3.257 0.332-4.71v0c0.075-0.353 0.213-0.683 0.414-0.988 0.195-0.297 0.437-0.567 0.725-0.809 0.281-0.241 0.591-0.443 0.928-0.608 0.338-0.164 0.678-0.282 1.021-0.353z" fill="#ee3e38" data-fill-palette-color="primary"></path><path d="M210.29 258.855l-17.923-17.157 4.34 24.422-0.014-0.026c0.043 0.375 0.008 0.716-0.105 1.024-0.11 0.314-0.319 0.553-0.629 0.719v0c-0.163 0.087-0.332 0.159-0.504 0.214-0.17 0.046-0.351 0.094-0.543 0.143v0l0.035-0.018c-1.375 0.263-2.163-0.164-2.361-1.281v0l-4.416-25.215c-0.073-0.389-0.042-0.766 0.094-1.13 0.135-0.365 0.37-0.663 0.703-0.894v0c0.319-0.246 0.634-0.47 0.945-0.674 0.314-0.213 0.564-0.369 0.751-0.47v0c0.181-0.097 0.447-0.217 0.798-0.359 0.348-0.149 0.708-0.296 1.08-0.443v0c0.308-0.112 0.673-0.109 1.097 0.01 0.424 0.119 0.777 0.275 1.061 0.468v0c3.053 2.929 6.137 5.876 9.253 8.839 3.11 2.966 6.191 5.914 9.244 8.844v0c0.795 0.798 0.713 1.69-0.246 2.675v0c-0.142 0.128-0.27 0.246-0.386 0.353-0.119 0.101-0.26 0.195-0.423 0.282v0c-0.292 0.156-0.607 0.197-0.946 0.124-0.342-0.065-0.649-0.223-0.919-0.476v0zM202.237 254.574v0c0.353 0.659 0.419 1.344 0.199 2.055-0.211 0.713-0.647 1.246-1.306 1.599v0c-0.665 0.356-1.347 0.42-2.046 0.194-0.702-0.217-1.229-0.656-1.582-1.315v0c-0.356-0.665-0.429-1.35-0.22-2.055 0.2-0.707 0.632-1.238 1.297-1.594v0c0.659-0.353 1.344-0.419 2.054-0.198 0.713 0.211 1.248 0.649 1.604 1.314z" fill="#ee3e38" data-fill-palette-color="primary"></path><path d="M230.798 234.666l-12.533-14.263c-0.743-0.845-0.594-1.724 0.444-2.636v0c1.034-0.908 1.922-0.94 2.665-0.096v0l15.979 18.185c0.542 0.616 0.611 1.352 0.209 2.207v0l0.03-0.026c-0.178 0.368-0.392 0.727-0.64 1.077-0.257 0.349-0.535 0.655-0.832 0.917v0c-0.229 0.201-0.484 0.386-0.768 0.555-0.288 0.174-0.583 0.309-0.884 0.407-0.306 0.093-0.623 0.138-0.951 0.136-0.337-0.003-0.667-0.083-0.99-0.24v0l-18.245-9.23-0.643 0.697 12.514 14.24c0.738 0.84 0.578 1.725-0.481 2.655v0c-1.034 0.908-1.92 0.943-2.658 0.103v0l-15.96-18.162c-0.633-0.721-0.744-1.483-0.33-2.286v0c0.381-0.74 0.896-1.396 1.547-1.967v0c0.457-0.402 0.998-0.714 1.622-0.937 0.629-0.227 1.29-0.191 1.984 0.107v0l18.248 9.28z" fill="#ee3e38" data-fill-palette-color="primary"></path><path d="M251.988 206.053l1.908 1.306c1.567 1.073 2.38 2.392 2.439 3.956v0c0.022 0.753-0.049 1.466-0.213 2.139-0.155 0.672-0.405 1.259-0.749 1.761v0l-4.323 6.314c-0.34 0.497-0.797 0.942-1.371 1.335-0.565 0.391-1.202 0.713-1.912 0.964v0c-0.732 0.237-1.473 0.295-2.223 0.174-0.755-0.116-1.539-0.452-2.353-1.01v0l-13.749-9.414c-0.77-0.527-1.356-1.129-1.759-1.806-0.406-0.671-0.621-1.383-0.643-2.136v0l-0.017 0.024c0.016-0.727 0.103-1.433 0.261-2.119 0.157-0.686 0.406-1.278 0.746-1.775v0l4.323-6.313c0.344-0.502 0.807-0.951 1.39-1.346 0.583-0.395 1.21-0.731 1.882-1.009v0l-0.017 0.025c0.706-0.246 1.447-0.304 2.224-0.174 0.773 0.136 1.544 0.468 2.314 0.995v0l1.998 1.368c0.928 0.635 0.996 1.532 0.204 2.69v0c-0.778 1.136-1.63 1.386-2.559 0.75v0l-1.736-1.189c-0.486-0.333-1.03-0.493-1.632-0.48-0.602 0.013-1.148 0.377-1.638 1.092v0l-3.331 4.864c-0.49 0.715-0.632 1.356-0.425 1.922 0.206 0.566 0.552 1.015 1.037 1.348v0l13.259 9.079c0.502 0.344 1.054 0.51 1.656 0.496 0.602-0.013 1.148-0.377 1.638-1.091v0l3.331-4.865c0.49-0.715 0.632-1.356 0.426-1.922-0.206-0.566-0.56-1.021-1.062-1.364v0l-1.679-1.15c-0.906-0.621-0.971-1.499-0.193-2.634v0c0.793-1.157 1.642-1.426 2.548-0.805z" fill="#ee3e38" data-fill-palette-color="primary"></path><path d="M258.049 184.178l8.669 3.168c1.05 0.384 1.339 1.222 0.867 2.515v0c-0.475 1.299-1.237 1.756-2.287 1.372v0l-8.772-3.205-16.738 2.253c-0.334 0.026-0.653-0.017-0.957-0.128v0c-0.64-0.234-0.976-0.779-1.008-1.636v0l-0.01 0.028c-0.005-0.544 0.044-0.96 0.148-1.246v0c0.209-0.572 0.656-0.909 1.342-1.01v0l13.461-1.876c-0.672-0.746-1.394-1.545-2.167-2.398-0.773-0.853-1.558-1.721-2.356-2.604-0.8-0.877-1.589-1.743-2.369-2.599-0.786-0.858-1.523-1.673-2.212-2.446v0c-0.195-0.276-0.333-0.544-0.414-0.806-0.078-0.268-0.062-0.554 0.05-0.859v0c0.114-0.311 0.337-0.641 0.669-0.992v0l-0.011 0.028c0.609-0.644 1.23-0.85 1.864-0.619v0c0.131 0.048 0.264 0.107 0.4 0.178 0.134 0.077 0.263 0.188 0.386 0.331v0c0.325 0.344 0.72 0.767 1.186 1.268 0.463 0.507 1.105 1.217 1.926 2.131 0.824 0.907 1.9 2.089 3.227 3.546 1.321 1.455 3.023 3.324 5.106 5.606z" fill="#ee3e38" data-fill-palette-color="primary"></path><path d="M11.727 143.364c0-1.788 1.449-3.237 3.237-3.237 1.788 0 3.237 1.449 3.237 3.237 0 1.788-1.449 3.237-3.237 3.237-1.788 0-3.237-1.449-3.237-3.237z" fill="#ee3e38" data-fill-palette-color="primary"></path><path d="M261.594 143.364c0-1.788 1.449-3.237 3.237-3.237 1.788 0 3.237 1.449 3.237 3.237 0 1.788-1.449 3.237-3.237 3.237-1.788 0-3.237-1.449-3.237-3.237z" fill="#ee3e38" data-fill-palette-color="primary"></path></g></svg></g></svg></g></svg></g><g></g></svg></g><defs></defs></svg><rect width="279.72" height="279.72" fill="none" stroke="none" visibility="hidden"></rect></g></svg></g></svg>