<?xml version="1.0" encoding="utf-8"?>
<!-- Generator: Adobe Illustrator 22.0.2, SVG Export Plug-In . SVG Version: 6.00 Build 0)  -->
<svg version="1.1" id="レイヤー_1" xmlns="http://www.w3.org/2000/svg" xmlns:xlink="http://www.w3.org/1999/xlink" x="0px"
	 y="0px" viewBox="0 0 277.5 75" style="enable-background:new 0 0 277.5 75;" xml:space="preserve">
<style type="text/css">
	.st0{fill:url(#SVGID_1_);}
	.st1{fill:#86BC43;}
	.st2{fill:url(#SVGID_2_);}
	.st3{fill:#3DAB4B;}
	.st4{fill:url(#SVGID_3_);}
	.st5{fill:#63B96A;}
	.st6{fill:#9E9E9F;}
</style>
<title>RNC1</title>
<radialGradient id="SVGID_1_" cx="-122.0128" cy="-63.191" r="21.9726" gradientTransform="matrix(0.9576 -0.2882 -0.2882 -0.9576 123.7435 -39.6697)" gradientUnits="userSpaceOnUse">
	<stop  offset="0.12" style="stop-color:#B4B5B5"/>
	<stop  offset="0.29" style="stop-color:#C0C1C1;stop-opacity:0.83"/>
	<stop  offset="0.66" style="stop-color:#E0E0E0;stop-opacity:0.41"/>
	<stop  offset="1" style="stop-color:#FFFFFF;stop-opacity:0"/>
</radialGradient>
<path class="st0" d="M19.7,38.1c13.1-4,26.2,0.8,29.2,10.7s-5.3,21.1-18.4,25C17.4,77.8,4.3,73,1.3,63.2S6.6,42.1,19.7,38.1z"/>
<path class="st1" d="M50.2,23.1c-0.1,5.2-1.3,10.3-3.3,15.1c-6.9,16.2-22.3,25.4-34.3,20.5C4.6,55.4,0.1,46.7,0,36.5v-0.2
	c0-0.1,0-0.2,0-0.3c0.7-15.6,17.9-20,25.1-6.6S49.5,36.8,50.2,23.1z"/>
<linearGradient id="SVGID_2_" gradientUnits="userSpaceOnUse" x1="-1819.3531" y1="1494.9323" x2="-1834.4631" y2="1485.7323" gradientTransform="matrix(6.123234e-17 -1 -1 -6.123234e-17 1502.61 -1806.51)">
	<stop  offset="0" style="stop-color:#FFFFFF"/>
	<stop  offset="1" style="stop-color:#FFFFFF;stop-opacity:0"/>
</linearGradient>
<path class="st2" d="M45.3,37.5c0.4-0.8,0.7-1.6,1-2.5c-1.9,1.6-4.1,2.6-6.4,3.2c-6.5,1.5-12.7-1.6-16.2-8s-8.9-7.6-12.8-6.7
	C5.6,24.7,2,29.6,1.8,36v0.1v0.1v0.3C1.8,46.3,6.2,54.2,13.2,57C24.3,61.6,38.7,52.8,45.3,37.5z"/>
<path class="st3" d="M37.7,1.3c8,3.3,12.5,12,12.5,22.2c0,0.3,0,0.6,0,0.8C49.5,38,32.3,44,25.1,30.6S0.7,21.7,0,37.2
	c0.1-5.3,1.2-10.6,3.4-15.5C10.3,5.6,25.7-3.6,37.7,1.3z"/>
<linearGradient id="SVGID_3_" gradientUnits="userSpaceOnUse" x1="-1849.5481" y1="1467.405" x2="-1836.168" y2="1472.755" gradientTransform="matrix(6.123234e-17 -1 -1 -6.123234e-17 1502.61 -1806.51)">
	<stop  offset="0" style="stop-color:#FFFFFF"/>
	<stop  offset="1" style="stop-color:#FFFFFF;stop-opacity:0"/>
</linearGradient>
<path class="st4" d="M5,22.5c-0.2,0.5-0.5,1.1-0.7,1.6c1.7-1.3,3.6-2.3,5.7-2.8c6.5-1.5,13,1.8,16.6,8.5c2.8,5.1,7.4,7.4,12.4,6.3
	c5.5-1.3,9.3-6.2,9.4-11.8c0-0.2,0-0.4,0-0.6v-0.1C48.4,13.7,44,5.8,37,2.9C25.9-1.6,11.5,7.2,5,22.5z"/>
<path class="st5" d="M84.9,40.6h-7L69,28.3c-0.7,0-1.2,0-1.6,0h-0.5c-0.2,0-0.4,0-0.6,0v7.6c0,1.7,0.2,2.7,0.5,3.1
	c0.6,0.6,1.4,0.9,2.2,0.8h1v0.7H58.7v-0.7h1c0.9,0.1,1.8-0.3,2.4-1.1c0.4-0.9,0.5-1.9,0.4-2.8V19c0-1.6-0.2-2.7-0.5-3.1
	c-0.6-0.6-1.4-1-2.3-0.9h-1v-0.7h9.6c2.1-0.1,4.2,0.1,6.2,0.6c1.3,0.4,2.5,1.2,3.4,2.3c0.9,1.1,1.4,2.5,1.4,3.9
	c0,1.6-0.5,3.1-1.6,4.2c-1.3,1.3-3,2.2-4.9,2.5l5.4,7.5c0.9,1.3,1.9,2.5,3.2,3.5c1.1,0.6,2.3,1,3.5,1.1L84.9,40.6z M66.2,27.1h1.1
	c2.5,0,4.4-0.5,5.7-1.6c1.2-1,1.9-2.5,1.9-4.1c0.1-1.5-0.5-2.9-1.5-4c-1.1-1.1-2.6-1.6-4.1-1.5c-1,0-2,0.2-3,0.4L66.2,27.1z"/>
<path class="st5" d="M84,14.3h7.1L107.2,34V18.9c0-1.6-0.2-2.6-0.5-3c-0.6-0.6-1.4-0.9-2.3-0.8h-0.9v-0.7h9.2V15h-0.9
	c-0.9-0.1-1.8,0.3-2.4,1c-0.4,0.9-0.5,1.9-0.4,2.8V41h-0.7L90.9,19.9V36c0,1.6,0.2,2.6,0.5,3c0.6,0.6,1.4,0.9,2.3,0.8h0.9v0.7h-9.1
	v-0.7h0.9c0.9,0.1,1.8-0.3,2.4-1c0.4-0.9,0.5-1.9,0.4-2.8V17.8c-0.5-0.6-1.1-1.2-1.7-1.8c-0.5-0.3-1.1-0.6-1.7-0.8
	C85.1,15.1,84.6,15,84,15V14.3z"/>
<path class="st5" d="M137.1,13.7l0.6,8.9h-0.6c-0.5-2.2-1.7-4.2-3.4-5.8c-1.5-1.2-3.4-1.8-5.4-1.8c-1.7,0-3.3,0.4-4.7,1.3
	c-1.5,1-2.7,2.5-3.3,4.2c-0.9,2.3-1.3,4.8-1.2,7.2c0,2.1,0.3,4.2,1.1,6.2c0.7,1.7,1.9,3.1,3.4,4c1.6,0.9,3.4,1.4,5.2,1.4
	c1.6,0,3.1-0.3,4.5-1.1c1.7-1.1,3.2-2.6,4.3-4.4l0.6,0.4c-1.1,2.1-2.7,3.8-4.6,5.1c-1.9,1.1-4.1,1.7-6.3,1.6
	c-4,0.2-7.8-1.6-10.1-4.8c-1.8-2.5-2.7-5.4-2.7-8.5c0-2.5,0.6-5,1.8-7.2c1.1-2.1,2.8-3.9,4.9-5.1c2.1-1.2,4.4-1.8,6.8-1.8
	c2,0,3.9,0.5,5.6,1.4c0.4,0.2,0.7,0.4,1.2,0.4c0.3,0,0.7-0.1,0.9-0.4c0.4-0.4,0.6-0.9,0.7-1.4H137.1z"/>
<path class="st6" d="M68.9,57.9h-1.3v-0.6h-2.3v0.6h-1.3v-4.4h-2.3v5.8h8.7v1.3h-8.7v0.9h-1.3v-8h-2v-1.3h2v-3l1.6,0.1
	c0,0.1-0.1,0.2-0.3,0.2v2.7h2.3v-3.2l1.6,0.1c0,0.1-0.1,0.2-0.3,0.2v3h2.3v-3.2l1.6,0.1c0,0.1-0.1,0.2-0.3,0.2v2.8H71v1.2h-2.1V57.9
	z M65.4,56.1h2.3v-2.5h-2.3V56.1z"/>
<path class="st6" d="M83,55.2h-2.3c1.1,1.1,2.4,1.9,3.8,2.3c-0.3,0.3-0.6,0.7-0.8,1.1c-1.1-0.4-2-0.9-2.9-1.7v4.8h-1.3v-5.1l1,0
	c-0.5-0.4-0.9-0.9-1.2-1.4h-2c-0.4,0.5-0.8,0.9-1.3,1.3l1.2,0.1c0,0.1-0.1,0.2-0.3,0.2v0.6c0.1,1.9-1.1,3.7-3,4.3
	c-0.2-0.4-0.5-0.7-0.8-1c2.3-0.9,2.6-2.3,2.6-3.4v-0.5c-0.9,0.7-1.8,1.3-2.9,1.7c-0.2-0.4-0.5-0.7-0.8-1c1.5-0.5,2.8-1.3,3.9-2.3
	h-2.3v-5.7H83V55.2z M74.7,50.5v1.3h2.8v-1.3H74.7z M74.7,52.8v1.3h2.8v-1.3L74.7,52.8z M81.7,51.8v-1.3h-2.9v1.3L81.7,51.8z
	 M81.7,54.1v-1.3h-2.9v1.3L81.7,54.1z"/>
<path class="st6" d="M96,54.1L96,54.1c-0.2,0-0.3,0-0.4-0.1c-4,1.1-7.3,2.7-7.3,4.3c0,1.1,1.3,1.6,3.3,1.6c1.6,0,3.2-0.1,4.7-0.3
	l0.1,1.4c-1.6,0.2-3.3,0.3-4.9,0.3c-2.6,0-4.6-0.6-4.6-2.8c0-1.4,1.3-2.7,3.4-3.8c-0.5-0.9-0.7-2.4-0.6-5.4l2,0.2
	c0,0.2-0.2,0.3-0.4,0.3c-0.1,1.4,0,2.9,0.4,4.3c1.2-0.5,2.6-1,4-1.5L96,54.1z"/>
<path class="st6" d="M100.6,54.3c-0.4,0.6-0.9,1.3-1.4,1.8c-0.1-0.3-0.4-1-0.6-1.3c1.4-1.7,2.5-3.7,3.2-5.8l1.5,0.5
	c-0.1,0.1-0.2,0.1-0.3,0.1c-0.3,0.9-0.7,1.8-1.2,2.7l0.4,0.1c0,0.1-0.1,0.2-0.3,0.2v8.9h-1.3L100.6,54.3z M110,53.3h0.2
	c0.3,0.2,0.6,0.3,0.8,0.3c0,0.1-0.1,0.2-0.2,0.2c-0.4,1.8-1.1,3.5-2.1,4.9c0.8,0.8,1.8,1.5,2.9,1.8c-0.3,0.3-0.6,0.7-0.8,1.1
	c-1.1-0.5-2.1-1.1-2.9-2c-0.8,0.8-1.8,1.5-2.8,2c-0.2-0.4-0.5-0.7-0.8-1c1.1-0.4,2-1.1,2.9-1.9c-0.8-1.2-1.5-2.4-1.9-3.8l1.1-0.3
	c0.3,1.1,0.9,2.2,1.6,3.1c0.7-1,1.2-2.1,1.5-3.3H105c0,2.2-0.4,5.2-1.7,7.2c-0.3-0.3-0.6-0.6-1-0.8c1.4-2,1.5-5,1.5-7.1v-4.1h7.6
	v1.2H105v2.4L110,53.3z"/>
<path class="st6" d="M114.9,57v-3.2c-0.5,0.9-1.1,1.7-1.9,2.5c-0.2-0.3-0.5-0.6-0.8-0.9c1.1-0.9,1.9-2,2.5-3.3h-2.2V51h2.4v-2
	l1.5,0.1c0,0.1-0.1,0.2-0.3,0.2V51h2v1.1h-2v0.7c0.5,0.3,1.9,1.3,2.2,1.6l-0.7,1c-0.3-0.3-1-0.9-1.5-1.4V57L114.9,57z M115.2,58.2
	c-0.3,1.1-1,2.2-1.8,3l-1.1-0.8c0.8-0.7,1.5-1.6,1.8-2.7L115.2,58.2z M117.2,59.9c0,0.4,0.1,0.4,0.8,0.4h2.2c0.5,0,0.6-0.2,0.7-1.3
	c0.4,0.2,0.7,0.4,1.1,0.5c-0.2,1.6-0.5,1.9-1.7,1.9h-2.4c-1.6,0-1.9-0.3-1.9-1.5v-2l1.6,0.1c0,0.1-0.1,0.2-0.3,0.2V59.9z
	 M119.3,59.4c-0.6-0.8-1.4-1.5-2.2-2l0.8-0.7c0.8,0.5,1.6,1.2,2.3,1.9L119.3,59.4z M124.1,49.7v7.2h-5.4v-7.2H124.1z M122.9,51.8
	v-1.1h-3v1.1L122.9,51.8z M122.9,53.8v-1h-3v1.1L122.9,53.8z M122.9,55.8v-1h-3v1.1L122.9,55.8z M123.9,61.2c-0.7-1.1-1.5-2.2-2.5-3
	l1-0.6c1,0.8,1.9,1.9,2.6,3L123.9,61.2z"/>
<path class="st6" d="M128.9,57.5l1.8-0.5l0.2,1.1c-1.6,0.5-3.4,1-4.5,1.3c0,0.1-0.1,0.2-0.2,0.2l-0.5-1.3c0.6-0.1,1.3-0.3,2.1-0.5
	v-3.1H126v-1.2h1.6v-2.7h-1.8v-1.2h4.7v1.2h-1.7v2.7h1.6v1.2h-1.6L128.9,57.5z M133.7,57.6c0,0.1-0.1,0.2-0.3,0.2
	c-0.3,1.7-1,3-3.7,3.8c-0.2-0.4-0.4-0.7-0.7-1c2.4-0.6,3-1.6,3.2-3.1L133.7,57.6z M135.9,60c0,0.4,0.1,0.4,0.3,0.4h0.9
	c0.3,0,0.3-0.2,0.4-1.6c0.3,0.2,0.7,0.4,1.1,0.5c-0.1,1.8-0.4,2.2-1.3,2.2H136c-1.1,0-1.4-0.4-1.4-1.5v-2.9h-3.5v-7.5h6.5v7.5h-1.8
	L135.9,60z M132.4,50.6v1.1h4.1v-1.1L132.4,50.6z M132.4,52.8v1.1h4.1v-1.2L132.4,52.8z M132.4,54.9v1.2h4.1v-1.2L132.4,54.9z"/>
<path class="st6" d="M151.5,58.1h-4.8c1,1.3,2.6,2.1,4.9,2.4c-0.3,0.3-0.6,0.7-0.8,1.1c-2.6-0.5-4.4-1.5-5.4-3.4
	c-0.7,1.3-2.3,2.5-5.3,3.4c-0.2-0.4-0.5-0.7-0.8-1c2.6-0.7,3.9-1.5,4.6-2.5h-4.5V57h5c0.1-0.3,0.1-0.7,0.2-1h-3.5v-1h3.6v-0.9h-4
	v-0.8h-1v-2.8h5V49l1.6,0.1c0,0.1-0.1,0.2-0.3,0.2v1.2h5.1v2.8h-0.9v0.8H146V55h3.8v1H146c0,0.3-0.1,0.7-0.1,1h5.6L151.5,58.1z
	 M141.1,53.1h3.7v-1.2l1.6,0.1c0,0.1-0.1,0.2-0.3,0.2v0.8h3.8v-1.4h-8.8L141.1,53.1z"/>
<path class="st6" d="M159.9,51.8c-0.1,0.1-0.2,0.2-0.4,0.2c-0.5,4.4-1.9,7.5-4.2,7.5c-1.3,0-2.4-1.2-2.4-3.4c0-3.3,2.6-5.9,5.9-6
	c0.1,0,0.1,0,0.2,0c3.9,0,5.7,2.4,5.7,5.1c0,3.2-1.7,4.8-5.1,5.6c-0.3-0.4-0.5-0.8-0.9-1.2c3.1-0.6,4.5-2.1,4.5-4.4
	s-1.4-3.9-4.3-3.9c-0.2,0-0.4,0-0.6,0L159.9,51.8z M158.2,51.6c-2.2,0.4-3.9,2.3-3.9,4.5c0,1.3,0.5,2.1,1.1,2.1
	C156.9,58.3,157.9,55,158.2,51.6L158.2,51.6z"/>
<path class="st6" d="M178.4,57.6H174c1.3,1.2,2.9,2.1,4.7,2.6c-0.3,0.3-0.6,0.7-0.9,1.1c-1.9-0.7-3.5-1.8-4.9-3.2v3.5h-1.3v-3.5
	c-1.3,1.4-3,2.6-4.8,3.3c-0.2-0.4-0.5-0.7-0.8-1c1.7-0.5,3.3-1.5,4.7-2.7h-4.4v-1.2h5.4v-1.3l1.6,0.1c0,0.1-0.1,0.2-0.3,0.2v0.9h5.4
	L178.4,57.6z M172,50.4c0,0.1,0,0.3,0,0.4c-0.1,2.7-0.2,3.8-0.5,4.1s-0.6,0.5-2.1,0.4c0-0.4-0.1-0.8-0.3-1.1c0.5,0,0.9,0,1.1,0
	c0.1,0,0.3,0,0.4-0.1c0.2-0.9,0.3-1.8,0.3-2.7h-1.5c-0.1,1.7-0.9,3.2-2.3,4.2c-0.3-0.3-0.6-0.5-0.9-0.8c1.2-0.8,1.9-2,2-3.4h-1.8
	v-1.1h1.9c0-0.5,0-0.9,0-1.4l1.5,0.1c0,0.1-0.1,0.2-0.3,0.2c0,0.4,0,0.7-0.1,1.1h1.7h0.3L172,50.4z M174.3,54.6v0.6h-1.2v-5.5h4.9
	v5.3h-1.2v-0.5L174.3,54.6z M176.8,50.9h-2.5v2.7h2.5V50.9z"/>
<path class="st6" d="M182.6,50.1c0,0.1-0.2,0.2-0.4,0.3c-0.4,1.8-0.6,3.6-0.7,5.4c0,0.7,0,1.3,0.1,2c0.3-0.5,0.8-1.7,1.2-2.3l0.8,1
	c-0.5,0.8-1,1.7-1.4,2.6c-0.1,0.2-0.1,0.4-0.1,0.6c0,0.2,0,0.4,0.1,0.5l-1.3,0.3c-0.4-1.5-0.6-3-0.6-4.5c0-2,0.2-4,0.6-5.9
	L182.6,50.1z M184.4,53c0.9,0,2.5,0,3.4-0.1c-0.1-1.6-0.2-3.3-0.2-3.6l1.8,0.1c0,0.2-0.2,0.3-0.4,0.3c0,0.7,0.1,2,0.1,3.1
	c0.8-0.1,1.7-0.2,2.5-0.4l0.1,1.3c-0.8,0.2-1.7,0.3-2.5,0.3V55c0,2.9-0.7,5-3.2,6.3c-0.3-0.3-0.6-0.6-1-0.9c2.4-1.2,2.9-2.9,2.9-5.2
	c0-0.2,0-0.9,0-1.1c-0.9,0.1-2.3,0.1-3.4,0.1L184.4,53z"/>
<path class="st6" d="M196,54c0.4,0.5,1.3,2,1.6,2.4l-0.7,0.9c-0.3-0.6-0.6-1.2-0.9-1.8v6.2h-1.2v-5.8c-0.3,1.1-0.8,2.2-1.4,3.2
	c-0.2-0.4-0.4-0.8-0.6-1.1c0.9-1.5,1.6-3.2,1.9-4.9h-1.6v-1.2h1.7V49l1.5,0.1c0,0.1-0.1,0.2-0.3,0.2v2.6h1.4v1.2H196V54z
	 M203.3,52.3c0.6,0.8,1.5,1.5,2.4,1.9c-0.3,0.3-0.6,0.6-0.8,0.9c-0.5-0.3-0.9-0.6-1.3-1v1.5h-4.4v-1.5c-0.4,0.4-0.9,0.7-1.4,1
	c-0.2-0.3-0.5-0.6-0.8-0.8c0.9-0.5,1.7-1.2,2.3-2h-1.8v-1h2.4c0.1-0.2,0.2-0.5,0.3-0.7c-0.7,0-1.5,0.1-2.2,0.1
	c0-0.3-0.1-0.6-0.3-0.8c2,0,4.1-0.2,6.1-0.6l0.9,0.8c-0.1,0-0.2,0-0.3,0c-0.7,0.1-1.7,0.3-2.8,0.4l0,0c0,0.1-0.1,0.2-0.3,0.2
	l-0.2,0.6h4.2v1L203.3,52.3z M205.2,60.4c0,0.5-0.1,0.9-0.5,1c-0.6,0.2-1.2,0.2-1.8,0.2c-0.1-0.3-0.2-0.7-0.4-1c0.6,0,1.1,0,1.3,0
	s0.2-0.1,0.2-0.2v-3.3h-5.1v4.5h-1.2v-5.5h7.5V60.4z M200.6,60.4V61h-0.9v-3.2h3.5v2.6L200.6,60.4z M200.7,52.3
	c-0.1,0.3-0.3,0.5-0.5,0.7h2.4c-0.2-0.2-0.4-0.5-0.5-0.7H200.7z M202.5,53.8h-2.2v1h2.2V53.8z M200.6,58.6v1h1.6v-1H200.6z"/>
<path class="st6" d="M218.4,55.1L218.4,55.1c-0.2,0-0.2,0-0.3-0.1c-1,0.3-2.4,0.8-3.5,1.2c0,0.3,0,0.6,0,1s0,0.8,0,1.2l-1.4,0.1
	c0.1-0.6,0.1-1.2,0.1-1.8c-1.3,0.6-2.3,1.4-2.3,2.1s0.8,1,2.5,1c1.1,0,2.3,0,3.4-0.2v1.3c-0.8,0.1-1.9,0.1-3.4,0.1
	c-2.6,0-3.8-0.6-3.8-2.1c0-1.1,1.5-2.3,3.4-3.3c-0.1-0.6-0.3-1-0.8-1c-0.9,0-1.9,0.5-3.1,1.8c-0.4,0.4-0.9,0.9-1.5,1.5L207,57
	c0.6-0.5,1.2-1.1,1.8-1.8c0.7-0.9,1.2-1.9,1.5-2.9h-0.6c-0.5,0-1.5,0-2.2,0v-1.2c0.8,0,1.8,0,2.3,0h0.8c0.1-0.6,0.2-1.1,0.3-1.9
	l1.7,0.2c0,0.1-0.2,0.2-0.3,0.2c-0.1,0.5-0.2,0.9-0.3,1.4c1.5-0.1,2.9-0.3,4.4-0.8l0.2,1.3c-1.6,0.4-3.3,0.7-4.9,0.7
	c-0.2,0.7-0.5,1.3-0.8,1.9l0,0c0.6-0.5,1.3-0.7,2-0.8c0.8,0,1.5,0.6,1.7,1.7c1.1-0.5,2.4-1,3.5-1.4L218.4,55.1z"/>
<path class="st6" d="M224.8,49.3c0,0.1-0.1,0.2-0.3,0.2l0,0c1,0.6,2,1.3,2.9,2.1l-0.7,1c-0.2-0.2-0.6-0.5-0.9-0.8v0.8h-3.3V52
	c-0.6,0.6-1.3,1.2-2,1.6c-0.2-0.4-0.4-0.7-0.7-1c1.5-0.9,2.7-2.1,3.6-3.6L224.8,49.3z M226.7,57.2h-4.5c0,0.2-0.1,0.5-0.1,0.7h4.9
	v3.7h-1.1v-0.4H223v0.5h-1v-3.1c-0.2,1-0.7,2-1.3,2.9c-0.2-0.3-0.5-0.6-0.9-0.8c1-1.6,1.5-3.4,1.4-5.3v-2.1h5.5L226.7,57.2z
	 M222.3,55.5c0,0.2,0,0.5,0,0.7h3.3v-0.7H222.3z M225.5,54.1h-3.3v0.7h3.3V54.1z M225.6,51.6c-0.6-0.5-1.2-0.9-1.8-1.3
	c-0.3,0.4-0.6,0.9-1,1.3H225.6z M225.8,58.8H223v1.3h2.8L225.8,58.8z M229.2,50.8c0,0.1-0.1,0.2-0.3,0.2v7.3h-1.2v-7.6L229.2,50.8z
	 M230.7,49.3l1.6,0.1c0,0.1-0.1,0.2-0.3,0.2V60c0,1.4-0.6,1.6-3.1,1.6c-0.1-0.4-0.2-0.9-0.4-1.3c0.5,0,1,0,1.4,0
	c0.8,0,0.9,0,0.9-0.3V49.3z"/>
<path class="st6" d="M236.5,54.3v4.3c0.9,1.5,2.8,1.5,4.9,1.5c1.5,0,3.4,0,4.6-0.1c-0.2,0.4-0.3,0.9-0.4,1.3c-0.9,0-2.3,0.1-3.6,0.1
	c-3.1,0-4.8,0-6.1-1.6c-0.6,0.6-1.3,1.1-1.8,1.5c0,0.1,0,0.2-0.2,0.3l-0.7-1.4c0.7-0.4,1.4-0.9,2-1.4v-3.2h-1.8v-1.2H236.5z
	 M234.5,49.3c0.9,0.6,1.7,1.3,2.4,2.1l-1,0.8c-0.6-0.8-1.4-1.6-2.3-2.2L234.5,49.3z M245.8,53.4v1.1H237v-1.1h3.8v-1.6h-1.7
	c-0.2,0.5-0.5,1-0.9,1.4c-0.3-0.2-0.7-0.4-1.1-0.5c0.7-1,1.3-2.2,1.5-3.5l1.4,0.4c-0.1,0.1-0.2,0.2-0.3,0.1c-0.1,0.3-0.2,0.7-0.3,1
	h1.3V49l1.6,0.1c0,0.1-0.1,0.2-0.3,0.2v1.4h3.1v1.1H242v1.6H245.8z M244.7,59.5h-1.3v-0.4h-4v0.5h-1.2v-4.3h6.5L244.7,59.5z
	 M239.5,58h4v-1.7h-4V58z"/>
<path class="st6" d="M247.3,51.3c0.9,0,5-0.1,5.9-0.2c0-0.2-0.1-1.6-0.1-2l1.8,0.1c-0.1,0.2-0.2,0.3-0.4,0.3c0,0.3,0,1,0,1.6
	c1.7-0.1,3.4-0.1,4.3-0.1v1.3c-1,0-2.6,0-4.3,0.1c0,0.5,0,1,0,1.3s0,0.8,0.1,1.3c0.1,0.5,0.2,1,0.2,1.5c0,2.8-1.9,4.4-4.1,5.2
	c-0.3-0.4-0.6-0.7-1-1c1.4-0.3,2.6-1.3,3.2-2.5l0,0c-0.3,0.3-0.6,0.5-1,0.5c-1.3,0-2.4-1.1-2.3-2.4c0,0,0,0,0-0.1
	c0-1.4,1.1-2.5,2.5-2.6c0.4,0,0.7,0.1,1.1,0.3c0-0.1,0-0.1,0-0.2c0-0.3,0-0.8,0-1.3c-2.2,0.1-4.4,0.1-5.9,0.2L247.3,51.3z M253.5,56
	c0-1-0.4-1.5-1.2-1.5c-0.8,0-1.4,0.6-1.4,1.4c0,0,0,0.1,0,0.1c0,0.7,0.5,1.3,1.2,1.3c0,0,0,0,0.1,0c0.7,0,1.3-0.6,1.3-1.3
	C253.5,56.1,253.5,56,253.5,56L253.5,56z"/>
<path class="st6" d="M265.4,54.8c0.9-0.4,1.9-0.6,2.9-0.6c1.7-0.2,3.3,1.1,3.5,2.8c0,0.2,0,0.3,0,0.5c0,2.4-2.1,3.8-4.9,3.8
	c-1.8,0-3-0.8-3-2c0.1-1.1,1.2-2,2.3-1.9c1.3,0,2.5,0.9,2.7,2.3c0.9-0.3,1.5-1.2,1.5-2.1c0-1.3-1-2.1-2.5-2.1
	c-1.7,0-3.3,0.6-4.6,1.7c-0.4,0.3-0.9,0.9-1.2,1.3l-1-0.9c1.1-1.1,4.7-4.5,6.5-6.2c-0.7,0.1-3.2,0.2-4.5,0.3
	c-0.1,0.1-0.2,0.2-0.3,0.2l-0.1-1.5c1.8,0,5.4-0.1,6.3-0.3l0.2-0.1l0.9,1.1c-0.1,0.1-0.2,0.1-0.4,0.2
	C268.8,51.6,266.5,53.7,265.4,54.8L265.4,54.8z M266.6,60c0.3,0,0.7,0,1-0.1c-0.1-0.8-0.7-1.5-1.6-1.6c-0.6,0-1.1,0.3-1.1,0.8
	C265,59.9,265.9,60,266.6,60L266.6,60z"/>
<path class="st6" d="M277.5,59.7c0,1-0.8,1.9-1.9,1.9c-1,0-1.9-0.8-1.9-1.9c0-1,0.8-1.9,1.9-1.9c0,0,0,0,0,0
	C276.6,57.8,277.5,58.7,277.5,59.7z M276.9,59.7c0-0.7-0.6-1.3-1.3-1.4c-0.7,0-1.3,0.6-1.4,1.3c0,0.7,0.6,1.3,1.3,1.4c0,0,0,0,0,0
	C276.3,61,276.9,60.4,276.9,59.7z"/>
</svg>
